# xmcd
#
# Track frame offsets: 
#        150
#        18213
#        37386
#        51583
#        75107
#        103700
#        123902
#        166137
#        177792
#        198041
#
# Disc length: 2705 seconds
#
# Revision: 0
# Processed by: cddbd v1.5.2PL0 Copyright (c) Steve Scherf et al.
# Submitted via: ExactAudioCopy v0.99pb5
#
DISCID=740a8f0a
DTITLE=Quicksilver Messenger Service  - Live at the Fillmore 1967 - Di
DTITLE=sk 1
DYEAR=1900
DGENRE=
TTITLE0=You dont love me
TTITLE1=I hear you knocking
TTITLE2=Gold and silver
TTITLE3=All night worker
TTITLE4=Codeine
TTITLE5=Got my Mojo working
TTITLE6=Mona
TTITLE7=A Fool For You
TTITLE8=I cant believe it
TTITLE9=Look around (excerpt only)
EXTD=
EXTT0=
EXTT1=
EXTT2=
EXTT3=
EXTT4=
EXTT5=
EXTT6=
EXTT7=
EXTT8=
EXTT9=
PLAYORDER=
